<svg width="140" height="84" viewBox="0 0 140 84" fill="none" xmlns="http://www.w3.org/2000/svg">
<path d="M59.3614 78.235L55.8262 82.206V82.4021H64.0549V72.9479L61.1496 76.2195C60.5799 76.9093 59.9785 77.5864 59.3582 78.235H59.3614Z" fill="#FFCE00"/>
<path d="M83.5413 20.9842V0H75.3125V29.7202L82.8228 21.8005L83.5413 20.9842Z" fill="#FFCE00"/>
<path d="M125.574 24.5185V24.5121C125.536 24.4868 125.498 24.4615 125.46 24.433C125.283 24.3096 125.103 24.1894 124.925 24.0692C124.742 23.9458 124.561 23.8255 124.375 23.7053C124.194 23.5882 124.011 23.4743 123.827 23.3604C123.637 23.2433 123.441 23.1294 123.248 23.0155C123.068 22.9111 122.887 22.8035 122.704 22.7023C122.492 22.5852 122.276 22.4713 122.061 22.3574C121.893 22.2688 121.726 22.177 121.555 22.0916C121.194 21.9081 120.83 21.7341 120.46 21.5632C120.33 21.5031 120.194 21.4461 120.061 21.3892C119.776 21.2626 119.491 21.1392 119.203 21.0222C119.042 20.9557 118.88 20.8956 118.716 20.8323C118.463 20.7342 118.209 20.6393 117.953 20.5475C117.782 20.4874 117.611 20.4273 117.44 20.3703C117.184 20.2818 116.924 20.1995 116.665 20.1172C116.5 20.0666 116.333 20.016 116.165 19.9653C115.88 19.8831 115.595 19.804 115.31 19.7312C115.165 19.6932 115.019 19.6521 114.874 19.6173C114.484 19.5224 114.095 19.4338 113.699 19.3515C113.655 19.342 113.611 19.3294 113.563 19.323C113.114 19.2344 112.664 19.1522 112.209 19.0826C112.187 19.0794 112.164 19.0731 112.145 19.0699C110.576 18.8294 108.971 18.6997 107.338 18.6997C97.8938 18.6997 89.4024 22.87 83.541 29.4987C83.541 29.4987 51.9235 65.0788 49.1004 68.3251C46.2773 71.5683 42.4288 73.7452 38.2384 74.9096C38.1846 74.9254 38.1308 74.9381 38.077 74.9539C36.6876 75.3304 35.2508 75.5804 33.7759 75.6911V75.6975C33.1967 75.7418 32.6144 75.7639 32.0257 75.7639C18.904 75.7639 8.22877 64.8099 8.22877 51.3435C8.22877 37.8772 18.904 26.9232 32.0257 26.9232C45.1474 26.9232 55.8227 37.8772 55.8227 51.3435C55.8227 51.4606 55.8163 51.5745 55.8132 51.6884L63.1083 43.4618L64.0483 42.4018V20.0413H55.8195V29.5114C49.9581 22.8795 41.4698 18.706 32.0226 18.706C14.3402 18.706 0 33.3209 0 51.353C0 69.3851 14.3402 84 32.0257 84C32.6144 84 33.1967 83.981 33.7759 83.9494C33.7759 83.9494 33.8012 83.9494 33.8139 83.9494C33.9658 83.9399 34.1177 83.9304 34.2665 83.9177C34.4026 83.9082 34.5387 83.8987 34.6779 83.8861C34.8267 83.8734 34.9754 83.8608 35.121 83.845C35.2603 83.8323 35.4027 83.8165 35.5419 83.8007C35.6844 83.7848 35.8268 83.769 35.966 83.75C36.1211 83.731 36.273 83.7089 36.4281 83.6868C36.5547 83.6678 36.6813 83.652 36.8047 83.633C37.0706 83.5918 37.3333 83.5475 37.596 83.5001C37.7004 83.4811 37.8017 83.4589 37.9061 83.4399C38.0834 83.4052 38.2606 83.3735 38.4378 83.3355C38.5518 83.3134 38.6657 83.2881 38.7796 83.2628C38.9474 83.2248 39.1151 83.1868 39.2829 83.1489C39.3936 83.1236 39.5012 83.0982 39.612 83.0698C39.7924 83.0255 39.976 82.978 40.1564 82.9305C40.2482 82.9052 40.3399 82.8831 40.4286 82.8578C40.9729 82.7059 41.5141 82.5414 42.049 82.361C42.1186 82.3389 42.1851 82.3135 42.2547 82.2882C42.4573 82.2186 42.6567 82.149 42.856 82.0762C42.9352 82.0478 43.0143 82.0193 43.0902 81.9876C43.2865 81.9149 43.4827 81.8389 43.6758 81.7598C43.7454 81.7313 43.815 81.706 43.8846 81.6776C44.1188 81.5826 44.3499 81.4846 44.5809 81.3833C44.6062 81.3706 44.6316 81.3612 44.66 81.3485C44.9259 81.2314 45.1917 81.1112 45.4544 80.9878C45.4829 80.9751 45.5114 80.9593 45.5399 80.9467C45.7646 80.8391 45.9861 80.7315 46.2045 80.6208C46.2298 80.6081 46.2552 80.5954 46.2805 80.5828C49.4929 78.9501 52.4014 76.7859 54.889 74.1977L54.9302 74.1502C55.4999 73.5554 56.0474 72.9384 56.5728 72.3024L90.2537 34.3651C94.5802 29.7803 100.635 26.9263 107.332 26.9263C108.753 26.9263 110.145 27.0561 111.497 27.3028C111.497 27.3028 111.497 27.306 111.497 27.3092C115.668 28.0686 119.469 29.9449 122.59 32.628C122.602 32.6375 122.615 32.6501 122.624 32.6596C123.118 33.0836 123.593 33.5298 124.049 33.9917C124.083 34.0265 124.118 34.0613 124.153 34.0993C124.365 34.3176 124.574 34.5391 124.78 34.7669C124.815 34.808 124.853 34.8492 124.887 34.8871C125.061 35.0833 125.235 35.2827 125.403 35.4852C125.444 35.5358 125.486 35.5832 125.527 35.6339C129.021 39.8832 131.129 45.3666 131.129 51.3467C131.129 64.813 120.453 75.7671 107.332 75.7671C94.2099 75.7671 83.5346 64.813 83.5346 51.3467C83.5346 51.2233 83.541 51.1031 83.5441 50.9828L83.5346 50.9923L75.3059 60.2599V82.3958H83.5346V73.1883C89.396 79.8202 97.8843 83.9937 107.332 83.9937C125.02 83.9937 139.357 69.3788 139.357 51.3467C139.357 40.225 133.898 30.4068 125.568 24.5121L125.574 24.5185Z" fill="#FFCE00"/>
</svg>
