<svg width="190" height="190" viewBox="0 0 190 190" fill="none" xmlns="http://www.w3.org/2000/svg">
<circle cx="94.918" cy="94.9177" r="76" transform="rotate(15 94.918 94.9177)" fill="white" stroke="#FFCE00" stroke-width="3"/>
<path d="M55.8392 72.9138C53.0864 72.1761 51.1283 70.9061 49.9652 69.1036C48.8099 67.2722 48.6049 64.9655 49.3503 62.1837L54.8476 41.6674L61.6284 43.4843L56.1544 63.9137C55.8904 64.8989 55.9454 65.7367 56.3195 66.427C56.7013 67.0884 57.3414 67.5394 58.2397 67.7801C59.3119 68.0674 60.3023 68.0222 61.2111 67.6445L61.7555 72.915C60.928 73.2213 59.9867 73.3729 58.9316 73.3697C57.9132 73.3453 56.8824 73.1933 55.8392 72.9138ZM48.3165 51.6109L49.7141 46.3949L65.9272 50.7391L64.5296 55.9551L48.3165 51.6109ZM67.2856 75.9808C66.1265 75.6702 65.2316 75.0111 64.6008 74.0036C64.0069 72.9748 63.8768 71.8374 64.2107 70.5913C64.5446 69.3453 65.2181 68.4542 66.2314 67.9182C67.2814 67.361 68.386 67.2377 69.5451 67.5483C70.7332 67.8666 71.6281 68.5257 72.2298 69.5255C72.8393 70.4963 72.9771 71.6048 72.6432 72.8508C72.3094 74.0969 71.628 75.0169 70.5992 75.6108C69.5782 76.1758 68.4737 76.2991 67.2856 75.9808ZM79.2665 78.8184L77.1 53.1738L83.4896 54.8859L85.0953 76.8861L82.0526 76.0708L94.7475 57.9025L100.485 59.4398L102.178 81.4633L99.135 80.6481L111.743 62.4564L117.741 64.0636L102.999 85.1776L96.4359 83.4189L94.8439 64.4971L96.8434 65.0329L85.7865 80.5654L79.2665 78.8184ZM114.829 88.72C113.67 88.4094 112.775 87.7503 112.144 86.7428C111.55 85.714 111.42 84.5766 111.754 83.3305C112.088 82.0845 112.762 81.1934 113.775 80.6574C114.825 80.1002 115.929 79.9769 117.088 80.2875C118.277 80.6058 119.171 81.2649 119.773 82.2647C120.383 83.2355 120.52 84.344 120.187 85.59C119.853 86.8361 119.171 87.7561 118.143 88.35C117.122 88.915 116.017 89.0383 114.829 88.72ZM127.81 91.8255L124.252 65.8082L131.25 67.6834L134.03 89.998L130.552 89.0663L144.421 71.2124L150.941 72.9594L134.808 93.7006L127.81 91.8255ZM147.643 97.5125C146.484 97.2019 145.589 96.5428 144.958 95.5352C144.364 94.5064 144.234 93.369 144.568 92.123C144.902 90.8769 145.575 89.9859 146.589 89.4499C147.639 88.8927 148.743 88.7694 149.902 89.0799C151.09 89.3983 151.985 90.0574 152.587 91.0572C153.197 92.028 153.334 93.1364 153.001 94.3825C152.667 95.6285 151.985 96.5485 150.957 97.1425C149.936 97.7075 148.831 97.8308 147.643 97.5125ZM43.2819 114.982L44.2602 111.331L67.6888 117.609L66.7104 121.26L43.2819 114.982ZM44.8892 108.984L45.8675 105.333L69.296 111.61L68.3177 115.261L44.8892 108.984ZM61.0487 131.436C58.6725 130.799 56.5711 129.833 54.7446 128.536C52.9547 127.218 51.5111 125.651 50.4137 123.835C49.3163 122.019 48.6182 120.046 48.3192 117.916C48.0203 115.786 48.1776 113.576 48.791 111.287C49.4044 108.998 50.373 107.006 51.6968 105.311C53.0207 103.615 54.6118 102.256 56.4701 101.232C58.3284 100.208 60.3582 99.5872 62.5596 99.3696C64.7977 99.1307 67.1048 99.3296 69.481 99.9663C72.118 100.673 74.3844 101.777 76.2803 103.279C78.1839 104.752 79.6089 106.562 80.5552 108.71L74.96 111.684C74.2352 110.216 73.3129 109.022 72.1931 108.1C71.0812 107.15 69.7573 106.469 68.2215 106.058C66.8015 105.677 65.4354 105.56 64.1231 105.705C62.8108 105.85 61.6035 106.241 60.5012 106.878C59.399 107.514 58.4423 108.36 57.6314 109.416C56.8494 110.48 56.2643 111.737 55.876 113.186C55.4878 114.634 55.3663 116.015 55.5116 117.327C55.6859 118.647 56.0912 119.859 56.7276 120.961C57.364 122.063 58.2142 123.005 59.278 123.787C60.3419 124.569 61.5838 125.15 63.0037 125.531C64.5395 125.942 66.0226 126.029 67.4529 125.791C68.8909 125.524 70.2946 124.922 71.664 123.985L75.0229 129.357C73.1294 130.744 70.9862 131.614 68.5934 131.967C66.2005 132.32 63.6856 132.143 61.0487 131.436ZM75.2883 134.693L76.5112 130.129L91.2171 122.189C92.3696 121.597 93.2525 121.026 93.8657 120.476C94.479 119.926 94.9318 119.395 95.2242 118.884C95.5456 118.38 95.7684 117.896 95.8926 117.432C96.2188 116.215 96.047 115.175 95.3775 114.313C94.7447 113.429 93.6314 112.773 92.0377 112.346C90.7626 112.005 89.5085 111.933 88.2754 112.13C87.0712 112.335 85.9527 112.859 84.9197 113.7L80.6758 109.022C82.3008 107.594 84.2924 106.653 86.6505 106.197C89.0087 105.742 91.5497 105.88 94.2736 106.609C96.5339 107.215 98.4034 108.12 99.8823 109.324C101.398 110.506 102.441 111.888 103.011 113.47C103.61 115.059 103.661 116.781 103.164 118.635C102.9 119.62 102.506 120.571 101.981 121.486C101.493 122.38 100.728 123.263 99.6877 124.133C98.676 125.011 97.2816 125.926 95.5045 126.879L83.3105 133.441L82.6502 130.516L99.8195 135.116L98.2821 140.854L75.2883 134.693ZM113.219 145.415C110.726 144.747 108.658 143.541 107.014 141.796C105.377 140.022 104.308 137.81 103.807 135.16C103.306 132.51 103.502 129.518 104.395 126.186C105.288 122.854 106.614 120.165 108.373 118.121C110.132 116.076 112.16 114.71 114.456 114.021C116.761 113.303 119.159 113.277 121.651 113.945C124.172 114.621 126.236 115.842 127.844 117.608C129.488 119.353 130.561 121.55 131.062 124.2C131.563 126.85 131.368 129.842 130.475 133.174C129.582 136.507 128.256 139.195 126.497 141.239C124.738 143.284 122.706 144.665 120.402 145.383C118.134 146.08 115.74 146.091 113.219 145.415ZM114.814 139.46C116.002 139.778 117.12 139.721 118.168 139.287C119.245 138.862 120.224 137.99 121.105 136.673C122.015 135.364 122.776 133.565 123.39 131.276C124.003 128.986 124.243 127.048 124.11 125.459C124.005 123.878 123.593 122.634 122.873 121.727C122.183 120.827 121.243 120.218 120.055 119.9C118.896 119.59 117.778 119.647 116.701 120.073C115.653 120.506 114.674 121.378 113.765 122.687C112.884 124.004 112.137 125.807 111.523 128.096C110.91 130.385 110.655 132.32 110.76 133.901C110.893 135.49 111.305 136.734 111.996 137.633C112.716 138.541 113.655 139.15 114.814 139.46Z" fill="#FFCE00"/>
</svg>
