<svg width="250" height="237" viewBox="0 0 250 237" fill="none" xmlns="http://www.w3.org/2000/svg">
<g clip-path="url(#clip0_121_22)">
<path d="M106.486 140.343L100.144 147.467V147.819H114.906V130.859L109.694 136.728C108.672 137.965 107.593 139.18 106.48 140.343H106.486Z" fill="#FFCE00"/>
<path d="M149.861 37.6428V0H135.1V53.3141L148.573 39.1072L149.861 37.6428Z" fill="#FFCE00"/>
<path d="M225.263 43.9829V43.9715C225.195 43.9261 225.127 43.8807 225.059 43.8296C224.741 43.6082 224.418 43.3926 224.1 43.1769C223.77 42.9555 223.447 42.7398 223.112 42.5241C222.788 42.3141 222.459 42.1098 222.13 41.9055C221.789 41.6955 221.437 41.4911 221.091 41.2868C220.767 41.0995 220.443 40.9065 220.114 40.7249C219.734 40.5149 219.348 40.3105 218.962 40.1062C218.661 39.9473 218.36 39.7827 218.053 39.6294C217.406 39.3002 216.753 38.988 216.089 38.6815C215.856 38.5737 215.612 38.4715 215.373 38.3694C214.862 38.1423 214.351 37.921 213.835 37.7109C213.545 37.5917 213.256 37.4839 212.96 37.3704C212.506 37.1944 212.052 37.0242 211.592 36.8596C211.286 36.7517 210.979 36.6439 210.672 36.5417C210.213 36.3828 209.747 36.2352 209.281 36.0876C208.986 35.9968 208.685 35.906 208.384 35.8152C207.873 35.6676 207.363 35.5257 206.852 35.3952C206.59 35.327 206.329 35.2533 206.068 35.1908C205.37 35.0205 204.671 34.8616 203.962 34.714C203.882 34.697 203.803 34.6743 203.718 34.663C202.911 34.504 202.105 34.3565 201.288 34.2316C201.248 34.2259 201.208 34.2146 201.174 34.2089C198.358 33.7775 195.48 33.5448 192.55 33.5448C175.609 33.5448 160.376 41.0257 149.861 52.9168C149.861 52.9168 93.1439 116.743 88.0797 122.566C83.0154 128.384 76.1116 132.289 68.5947 134.378C68.4982 134.406 68.4017 134.429 68.3052 134.457C65.8128 135.133 63.2352 135.581 60.5896 135.78V135.791C59.5506 135.871 58.5059 135.91 57.4499 135.91C33.9113 135.91 14.7613 116.26 14.7613 92.1035C14.7613 67.9467 33.9113 48.2966 57.4499 48.2966C80.9886 48.2966 100.139 67.9467 100.139 92.1035C100.139 92.3135 100.127 92.5178 100.122 92.7222L113.208 77.9647L114.894 76.0633V35.9514H100.133V52.9395C89.6183 41.0427 74.3914 33.5562 57.4443 33.5562C25.7244 33.5562 0 59.7733 0 92.1205C0 124.468 25.7244 150.685 57.4499 150.685C58.5059 150.685 59.5506 150.651 60.5896 150.594C60.5896 150.594 60.635 150.594 60.6577 150.594C60.9302 150.577 61.2027 150.56 61.4696 150.537C61.7137 150.52 61.9578 150.503 62.2076 150.481C62.4745 150.458 62.7413 150.435 63.0025 150.407C63.2523 150.384 63.5078 150.356 63.7576 150.327C64.013 150.299 64.2685 150.271 64.5183 150.237C64.7965 150.202 65.069 150.163 65.3472 150.123C65.5743 150.089 65.8014 150.061 66.0229 150.026C66.4998 149.953 66.971 149.873 67.4422 149.788C67.6296 149.754 67.8112 149.714 67.9986 149.68C68.3165 149.618 68.6345 149.561 68.9524 149.493C69.1568 149.453 69.3612 149.408 69.5656 149.362C69.8665 149.294 70.1674 149.226 70.4683 149.158C70.667 149.113 70.86 149.067 71.0587 149.016C71.3824 148.937 71.7116 148.852 72.0353 148.766C72.1999 148.721 72.3645 148.681 72.5235 148.636C73.5 148.363 74.4709 148.068 75.4304 147.745C75.5553 147.705 75.6745 147.66 75.7994 147.614C76.1627 147.489 76.5204 147.364 76.8781 147.234C77.02 147.183 77.162 147.132 77.2982 147.075C77.6502 146.944 78.0022 146.808 78.3486 146.666C78.4735 146.615 78.5984 146.57 78.7233 146.519C79.1434 146.348 79.5579 146.173 79.9723 145.991C80.0177 145.968 80.0631 145.951 80.1142 145.928C80.5911 145.718 81.068 145.503 81.5393 145.281C81.5904 145.259 81.6415 145.23 81.6926 145.208C82.0957 145.015 82.4931 144.822 82.8848 144.623C82.9303 144.6 82.9757 144.578 83.0211 144.555C88.7837 141.626 94.0012 137.744 98.4637 133.101L98.5375 133.016C99.5594 131.949 100.542 130.842 101.484 129.701L161.903 61.6464C169.664 53.422 180.525 48.3023 192.539 48.3023C195.088 48.3023 197.586 48.535 200.01 48.9777C200.01 48.9777 200.01 48.9834 200.01 48.989C207.493 50.3513 214.312 53.7171 219.91 58.5303C219.932 58.5473 219.955 58.57 219.972 58.5871C220.858 59.3476 221.709 60.1479 222.527 60.9766C222.589 61.0391 222.652 61.1015 222.714 61.1696C223.095 61.5613 223.469 61.9586 223.838 62.3672C223.901 62.441 223.969 62.5148 224.031 62.5829C224.344 62.9348 224.656 63.2924 224.957 63.6557C225.031 63.7465 225.104 63.8316 225.178 63.9224C231.446 71.5452 235.227 81.3816 235.227 92.1092C235.227 116.266 216.077 135.916 192.539 135.916C169 135.916 149.85 116.266 149.85 92.1092C149.85 91.8878 149.861 91.6721 149.867 91.4564L149.85 91.4735L135.089 108.098V147.807H149.85V131.29C160.365 143.187 175.592 150.674 192.539 150.674C224.27 150.674 249.989 124.456 249.989 92.1092C249.989 72.1582 240.195 54.5458 225.252 43.9715L225.263 43.9829Z" fill="#FFCE00"/>
</g>
<path d="M25.3416 184.518H11.3016L8.27759 191.25H5.50559L17.0256 166.05H19.6536L31.1736 191.25H28.3656L25.3416 184.518ZM24.3696 182.358L18.3216 168.822L12.2736 182.358H24.3696ZM34.8023 164.538H37.3583V191.25H34.8023V164.538ZM54.2263 172.17C56.0023 172.17 57.6103 172.578 59.0503 173.394C60.4903 174.186 61.6183 175.314 62.4343 176.778C63.2503 178.242 63.6583 179.91 63.6583 181.782C63.6583 183.678 63.2503 185.358 62.4343 186.822C61.6183 188.286 60.4903 189.426 59.0503 190.242C57.6343 191.034 56.0263 191.43 54.2263 191.43C52.6903 191.43 51.2983 191.118 50.0503 190.494C48.8263 189.846 47.8183 188.91 47.0263 187.686V198.234H44.4703V172.314H46.9183V176.058C47.6863 174.81 48.6943 173.85 49.9423 173.178C51.2143 172.506 52.6423 172.17 54.2263 172.17ZM54.0463 189.162C55.3663 189.162 56.5663 188.862 57.6463 188.262C58.7263 187.638 59.5663 186.762 60.1663 185.634C60.7903 184.506 61.1023 183.222 61.1023 181.782C61.1023 180.342 60.7903 179.07 60.1663 177.966C59.5663 176.838 58.7263 175.962 57.6463 175.338C56.5663 174.714 55.3663 174.402 54.0463 174.402C52.7023 174.402 51.4903 174.714 50.4102 175.338C49.3543 175.962 48.5143 176.838 47.8903 177.966C47.2903 179.07 46.9903 180.342 46.9903 181.782C46.9903 183.222 47.2903 184.506 47.8903 185.634C48.5143 186.762 49.3543 187.638 50.4102 188.262C51.4903 188.862 52.7023 189.162 54.0463 189.162ZM78.5167 172.17C80.8927 172.17 82.7767 172.866 84.1687 174.258C85.5847 175.626 86.2927 177.63 86.2927 180.27V191.25H83.7367V180.522C83.7367 178.554 83.2447 177.054 82.2607 176.022C81.2767 174.99 79.8727 174.474 78.0487 174.474C76.0087 174.474 74.3887 175.086 73.1887 176.31C72.0127 177.51 71.4247 179.178 71.4247 181.314V191.25H68.8687V164.538H71.4247V175.626C72.1207 174.522 73.0807 173.67 74.3047 173.07C75.5287 172.47 76.9327 172.17 78.5167 172.17ZM99.856 172.17C102.328 172.17 104.224 172.794 105.544 174.042C106.864 175.266 107.524 177.09 107.524 179.514V191.25H105.076V188.298C104.5 189.282 103.648 190.05 102.52 190.602C101.416 191.154 100.096 191.43 98.56 191.43C96.448 191.43 94.768 190.926 93.52 189.918C92.272 188.91 91.648 187.578 91.648 185.922C91.648 184.314 92.224 183.018 93.376 182.034C94.552 181.05 96.412 180.558 98.956 180.558H104.968V179.406C104.968 177.774 104.512 176.538 103.6 175.698C102.688 174.834 101.356 174.402 99.604 174.402C98.404 174.402 97.252 174.606 96.148 175.014C95.044 175.398 94.096 175.938 93.304 176.634L92.152 174.726C93.112 173.91 94.264 173.286 95.608 172.854C96.952 172.398 98.368 172.17 99.856 172.17ZM98.956 189.414C100.396 189.414 101.632 189.09 102.664 188.442C103.696 187.77 104.464 186.81 104.968 185.562V182.466H99.028C95.788 182.466 94.168 183.594 94.168 185.85C94.168 186.954 94.588 187.83 95.428 188.478C96.268 189.102 97.444 189.414 98.956 189.414ZM124.222 172.17C125.998 172.17 127.606 172.578 129.046 173.394C130.486 174.186 131.614 175.314 132.43 176.778C133.246 178.242 133.654 179.91 133.654 181.782C133.654 183.654 133.246 185.322 132.43 186.786C131.614 188.25 130.486 189.39 129.046 190.206C127.606 191.022 125.998 191.43 124.222 191.43C122.638 191.43 121.21 191.094 119.938 190.422C118.69 189.75 117.682 188.778 116.914 187.506V191.25H114.466V164.538H117.022V175.914C117.814 174.69 118.822 173.766 120.046 173.142C121.294 172.494 122.686 172.17 124.222 172.17ZM124.042 189.162C125.362 189.162 126.562 188.862 127.642 188.262C128.722 187.638 129.562 186.762 130.162 185.634C130.786 184.506 131.098 183.222 131.098 181.782C131.098 180.342 130.786 179.058 130.162 177.93C129.562 176.802 128.722 175.938 127.642 175.338C126.562 174.714 125.362 174.402 124.042 174.402C122.698 174.402 121.486 174.714 120.406 175.338C119.35 175.938 118.51 176.802 117.886 177.93C117.286 179.058 116.986 180.342 116.986 181.782C116.986 183.222 117.286 184.506 117.886 185.634C118.51 186.762 119.35 187.638 120.406 188.262C121.486 188.862 122.698 189.162 124.042 189.162ZM155.353 182.574H139.513C139.657 184.542 140.413 186.138 141.781 187.362C143.149 188.562 144.877 189.162 146.965 189.162C148.141 189.162 149.221 188.958 150.205 188.55C151.189 188.118 152.041 187.494 152.761 186.678L154.201 188.334C153.361 189.342 152.305 190.11 151.033 190.638C149.785 191.166 148.405 191.43 146.893 191.43C144.949 191.43 143.221 191.022 141.709 190.206C140.221 189.366 139.057 188.214 138.217 186.75C137.377 185.286 136.957 183.63 136.957 181.782C136.957 179.934 137.353 178.278 138.145 176.814C138.961 175.35 140.065 174.21 141.457 173.394C142.873 172.578 144.457 172.17 146.209 172.17C147.961 172.17 149.533 172.578 150.925 173.394C152.317 174.21 153.409 175.35 154.201 176.814C154.993 178.254 155.389 179.91 155.389 181.782L155.353 182.574ZM146.209 174.366C144.385 174.366 142.849 174.954 141.601 176.13C140.377 177.282 139.681 178.794 139.513 180.666H152.941C152.773 178.794 152.065 177.282 150.817 176.13C149.593 174.954 148.057 174.366 146.209 174.366ZM170.563 190.098C170.083 190.53 169.483 190.866 168.763 191.106C168.067 191.322 167.335 191.43 166.567 191.43C164.791 191.43 163.423 190.95 162.463 189.99C161.503 189.03 161.023 187.674 161.023 185.922V174.474H157.639V172.314H161.023V168.174H163.579V172.314H169.339V174.474H163.579V185.778C163.579 186.906 163.855 187.77 164.407 188.37C164.983 188.946 165.799 189.234 166.855 189.234C167.383 189.234 167.887 189.15 168.367 188.982C168.871 188.814 169.303 188.574 169.663 188.262L170.563 190.098ZM184.696 190.098C184.216 190.53 183.616 190.866 182.896 191.106C182.2 191.322 181.468 191.43 180.7 191.43C178.924 191.43 177.556 190.95 176.596 189.99C175.636 189.03 175.156 187.674 175.156 185.922V174.474H171.772V172.314H175.156V168.174H177.712V172.314H183.472V174.474H177.712V185.778C177.712 186.906 177.988 187.77 178.54 188.37C179.116 188.946 179.932 189.234 180.988 189.234C181.516 189.234 182.02 189.15 182.5 188.982C183.004 188.814 183.436 188.574 183.796 188.262L184.696 190.098ZM189.349 172.314H191.905V191.25H189.349V172.314ZM190.645 168.174C190.117 168.174 189.673 167.994 189.313 167.634C188.953 167.274 188.773 166.842 188.773 166.338C188.773 165.858 188.953 165.438 189.313 165.078C189.673 164.718 190.117 164.538 190.645 164.538C191.173 164.538 191.617 164.718 191.977 165.078C192.337 165.414 192.517 165.822 192.517 166.302C192.517 166.83 192.337 167.274 191.977 167.634C191.617 167.994 191.173 168.174 190.645 168.174ZM208.665 172.17C211.041 172.17 212.925 172.866 214.317 174.258C215.733 175.626 216.441 177.63 216.441 180.27V191.25H213.885V180.522C213.885 178.554 213.393 177.054 212.409 176.022C211.425 174.99 210.021 174.474 208.197 174.474C206.157 174.474 204.537 175.086 203.337 176.31C202.161 177.51 201.573 179.178 201.573 181.314V191.25H199.017V172.314H201.465V175.806C202.161 174.654 203.121 173.766 204.345 173.142C205.593 172.494 207.033 172.17 208.665 172.17ZM240.983 172.314V188.946C240.983 192.162 240.191 194.538 238.607 196.074C237.047 197.634 234.683 198.414 231.515 198.414C229.763 198.414 228.095 198.15 226.511 197.622C224.951 197.118 223.679 196.41 222.695 195.498L223.991 193.554C224.903 194.37 226.007 195.006 227.303 195.462C228.623 195.918 230.003 196.146 231.443 196.146C233.843 196.146 235.607 195.582 236.735 194.454C237.863 193.35 238.427 191.622 238.427 189.27V186.858C237.635 188.058 236.591 188.97 235.295 189.594C234.023 190.218 232.607 190.53 231.047 190.53C229.271 190.53 227.651 190.146 226.187 189.378C224.747 188.586 223.607 187.494 222.767 186.102C221.951 184.686 221.543 183.09 221.543 181.314C221.543 179.538 221.951 177.954 222.767 176.562C223.607 175.17 224.747 174.09 226.187 173.322C227.627 172.554 229.247 172.17 231.047 172.17C232.655 172.17 234.107 172.494 235.403 173.142C236.699 173.79 237.743 174.726 238.535 175.95V172.314H240.983ZM231.299 188.262C232.667 188.262 233.903 187.974 235.007 187.398C236.111 186.798 236.963 185.97 237.563 184.914C238.187 183.858 238.499 182.658 238.499 181.314C238.499 179.97 238.187 178.782 237.563 177.75C236.963 176.694 236.111 175.878 235.007 175.302C233.927 174.702 232.691 174.402 231.299 174.402C229.931 174.402 228.695 174.69 227.591 175.266C226.511 175.842 225.659 176.658 225.035 177.714C224.435 178.77 224.135 179.97 224.135 181.314C224.135 182.658 224.435 183.858 225.035 184.914C225.659 185.97 226.511 186.798 227.591 187.398C228.695 187.974 229.931 188.262 231.299 188.262Z" fill="#FFCE00"/>
<defs>
<clipPath id="clip0_121_22">
<rect width="250" height="150.685" fill="white"/>
</clipPath>
</defs>
</svg>
